<svg width="61" height="71" viewBox="0 0 61 71" fill="none" xmlns="http://www.w3.org/2000/svg">
<path d="M0 1.50017C0.552922 0.417304 1.13204 0.203228 2.5 0.500166L21 14.0002H39L57.5 0.500094C59.4439 -0.0939371 60.2467 0.0692006 61 1.50017V44.0002C60.3653 49.9444 58 54 54 57.5C50 61 32 70.5 32 70.5C30.8334 70.7223 30.1681 70.7132 29 70.5C29 70.5 11 61.5 6.5 57.5C2 53.5 0.564206 50.5489 0 44.0002V1.50017Z" fill="#5352ED"/>
<path d="M5 40.5C17.0981 46.7007 23.6461 50.1684 26 56V63C11.0192 55.222 5.46515 51.1754 5 45V40.5Z" fill="white"/>
<path d="M56 40.5C43.9019 46.7007 37.3539 50.1684 35 56V63C49.9808 55.222 55.5349 51.1754 56 45V40.5Z" fill="white"/>
<path d="M43.5 34C40.3108 34.6805 39.619 36.6305 39 41L47.5 36.5C47.2131 34.4851 46.5437 33.7694 43.5 34Z" fill="white"/>
<path d="M17.5 34.0015C20.6892 34.6818 21.381 36.6314 22 41L13.5 36.501C13.7869 34.4864 14.4563 33.7709 17.5 34.0015Z" fill="white"/>
<path d="M4.43765 11.8765C4.33175 10.8175 5.73355 10.348 6.28688 11.257L9.98064 17.3253C10.5469 18.2556 10.2648 19.4679 9.34599 20.0526L6.8703 21.628C6.24188 22.0279 5.4125 21.625 5.33838 20.8838L4.43765 11.8765Z" fill="white"/>
<path d="M56.5624 11.8765C56.6682 10.8175 55.2665 10.348 54.7131 11.257L51.0194 17.3253C50.4531 18.2556 50.7352 19.4679 51.654 20.0526L54.1297 21.628C54.7581 22.0279 55.5875 21.625 55.6616 20.8838L56.5624 11.8765Z" fill="white"/>
</svg>
