<svg width="1042" height="555" viewBox="0 0 1042 555" fill="none" xmlns="http://www.w3.org/2000/svg">
<g clip-path="url(#clip0_1410_213)">
<path d="M961.469 438.175C960.309 440.675 959.153 443.142 957.999 445.575C956.199 449.355 954.423 453.062 952.669 456.695C951.889 458.305 951.109 459.885 950.349 461.465C941.749 479.035 933.719 494.575 926.899 507.355C920.711 518.935 911.522 528.637 900.296 535.446C889.069 542.255 876.218 545.919 863.089 546.055L711.439 547.705H709.839L696.839 547.845L685.719 547.965L651.619 548.335H650.239L632.879 548.525H632.349L525.349 549.685L429.839 550.685L418.729 550.805L349.729 551.555H349.649L304.899 552.035H304.419L162.919 553.565L120.589 554.025C116.985 554.066 113.381 553.886 109.799 553.485C108.579 553.345 107.359 553.185 106.149 552.995C86.4072 549.948 68.3054 540.228 54.8593 525.455C36.6493 505.425 23.3992 482.055 14.4992 456.695C13.2126 453.035 12.0126 449.328 10.8992 445.575C-19.9108 341.425 17.6493 207.055 85.2493 117.135C88.0826 113.375 90.9626 109.708 93.8893 106.135L93.9592 106.055C114.749 80.535 138.059 59.215 162.889 44.055C206.889 17.145 255.639 9.56497 303.589 32.155C344.159 51.275 382.039 60.265 418.759 62.705C422.469 62.945 426.179 63.125 429.869 63.235C514.099 65.885 593.039 35.535 685.739 15.945C689.429 15.165 693.129 14.395 696.859 13.665C762.989 0.504967 836.349 -6.43503 923.589 8.15497C932.653 9.63563 941.596 11.7746 950.349 14.555C954.196 15.795 957.903 17.1283 961.469 18.555C1003.11 35.495 1025.82 66.795 1035.47 106.015C1036.38 109.655 1037.17 113.358 1037.84 117.125C1054.95 211.465 1004.84 345.285 961.469 438.175Z" fill="#F5EEFF"/>
<path d="M863.079 533.615V546.615L711.159 548.015L709.539 548.045L651.799 548.575L650.419 548.595L632.869 548.745H632.349L525.369 549.735L349.759 551.365H349.609L304.959 551.785L304.479 551.795L106.079 553.615V538.615L152.729 510.615L246.329 509.835L248.329 509.825L248.989 509.815L250.989 509.785L295.929 509.415L297.939 509.405L298.579 509.395L300.579 509.385L314.989 509.265L315.369 509.255L350.919 508.955H351.209L628.609 506.615L635.399 506.565H636.079L641.259 506.515L678.909 506.205L680.909 506.175L682.759 506.155H683.719L695.429 506.065L697.749 506.035L700.859 506.015L710.609 505.925L726.079 505.795L728.079 505.775L731.559 505.755H732.209L806.919 505.115L863.079 533.615Z" fill="#65617D"/>
<path opacity="0.2" d="M863.079 533.615V546.615L711.159 548.015L709.539 548.045L651.799 548.575L650.419 548.595L632.869 548.745H632.349L525.369 549.735L349.759 551.365H349.609L304.959 551.785L304.479 551.795L106.079 553.615V538.615L152.729 510.615L246.329 509.835L248.329 509.825L248.989 509.815L250.989 509.785L295.929 509.415L297.939 509.405L298.579 509.395L300.579 509.385L314.989 509.265L315.369 509.255L350.919 508.955H351.209L628.609 506.615L635.399 506.565H636.079L641.259 506.515L678.909 506.205L680.909 506.175L682.759 506.155H683.719L695.429 506.065L697.749 506.035L700.859 506.015L710.609 505.925L726.079 505.795L728.079 505.775L731.559 505.755H732.209L806.919 505.115L863.079 533.615Z" fill="black"/>
<path d="M296.089 483.625V508.115C296.09 509.275 295.761 510.411 295.141 511.392C294.522 512.373 293.637 513.157 292.589 513.655C291.809 514.033 290.956 514.238 290.089 514.255L255.189 514.995C254.257 515.017 253.332 514.822 252.489 514.425C251.423 513.936 250.519 513.151 249.886 512.164C249.254 511.176 248.918 510.028 248.919 508.855V483.625H296.089Z" fill="#3F3D56"/>
<path opacity="0.1" d="M296.089 483.625V508.115C296.09 509.275 295.761 510.411 295.141 511.392C294.522 512.373 293.637 513.157 292.589 513.655C291.809 514.033 290.956 514.238 290.089 514.255L255.189 514.995C254.257 515.017 253.332 514.822 252.489 514.425C251.423 513.936 250.519 513.151 249.886 512.164C249.254 511.176 248.918 510.028 248.919 508.855V483.625H296.089Z" fill="black"/>
<path d="M298.089 483.625V508.115C298.09 509.275 297.761 510.411 297.141 511.392C296.522 512.373 295.637 513.157 294.589 513.655C293.809 514.033 292.956 514.238 292.089 514.255L257.189 514.995C256.257 515.017 255.332 514.822 254.489 514.425C253.423 513.936 252.519 513.151 251.886 512.164C251.254 511.176 250.918 510.028 250.919 508.855V483.625H298.089Z" fill="#3F3D56"/>
<path d="M728.079 483.615H680.909V515.115H728.079V483.615Z" fill="#3F3D56"/>
<path opacity="0.1" d="M728.079 483.615H680.909V515.115H728.079V483.615Z" fill="black"/>
<path d="M726.079 483.615H678.909V515.115H726.079V483.615Z" fill="#3F3D56"/>
<path opacity="0.1" d="M298.079 483.615V488.585L250.909 489.845V483.615H298.079Z" fill="black"/>
<path d="M381.339 312.325V480.525C381.327 481.552 380.92 482.534 380.204 483.27C379.487 484.005 378.515 484.437 377.489 484.475L185.839 489.575H185.789C184.745 489.562 183.748 489.142 183.01 488.404C182.272 487.666 181.852 486.669 181.839 485.625V312.325C181.852 311.281 182.272 310.284 183.01 309.546C183.748 308.808 184.745 308.388 185.789 308.375H377.389C378.432 308.388 379.43 308.808 380.168 309.546C380.906 310.284 381.326 311.281 381.339 312.325Z" fill="#65617D"/>
<path opacity="0.1" d="M185.839 308.375V489.575H185.789C184.745 489.562 183.748 489.142 183.01 488.404C182.272 487.666 181.852 486.669 181.839 485.625V312.325C181.852 311.281 182.272 310.284 183.01 309.546C183.748 308.808 184.745 308.388 185.789 308.375H185.839Z" fill="black"/>
<path d="M194.579 319.115H372.079V467.365L194.579 471.365V319.115Z" fill="#39374D"/>
<path opacity="0.1" d="M726.079 483.615V490.025L678.909 488.765V483.615H726.079Z" fill="black"/>
<path d="M788.339 312.325V485.625C788.326 486.677 787.898 487.682 787.15 488.421C786.401 489.161 785.391 489.575 784.339 489.575L592.649 484.475C591.623 484.437 590.651 484.005 589.934 483.27C589.217 482.534 588.811 481.552 588.799 480.525V312.325C588.812 311.281 589.232 310.284 589.97 309.546C590.708 308.808 591.705 308.388 592.749 308.375H784.349C785.399 308.378 786.407 308.793 787.153 309.532C787.9 310.271 788.326 311.275 788.339 312.325Z" fill="#65617D"/>
<path opacity="0.1" d="M788.339 312.325V485.625C788.326 486.677 787.899 487.682 787.15 488.421C786.401 489.161 785.391 489.575 784.339 489.575V308.375C785.391 308.375 786.401 308.789 787.15 309.529C787.899 310.268 788.326 311.273 788.339 312.325Z" fill="black"/>
<path d="M775.579 319.115H598.079V467.365L775.579 471.365V319.115Z" fill="#39374D"/>
<path d="M583.839 312.325V480.525C583.827 481.552 583.42 482.534 582.704 483.27C581.987 484.005 581.015 484.437 579.989 484.475L388.339 489.575C387.287 489.575 386.277 489.161 385.528 488.421C384.779 487.682 384.352 486.677 384.339 485.625V312.325C384.352 311.281 384.772 310.284 385.51 309.546C386.248 308.808 387.245 308.388 388.289 308.375H579.889C580.932 308.388 581.93 308.808 582.668 309.546C583.406 310.284 583.826 311.281 583.839 312.325Z" fill="#65617D"/>
<path d="M397.079 319.115H574.579V467.365L397.079 471.365V319.115Z" fill="#282841"/>
<path opacity="0.1" d="M863.079 533.615V546.615L711.159 548.015L709.539 548.045L651.799 548.575L650.419 548.595L632.869 548.745H632.349L525.369 549.735L349.759 551.365H349.609L304.959 551.785L304.479 551.795L106.079 553.615V538.615L308.589 537.285H309.069L350.059 537.005H350.249L633.329 535.135H633.619L633.789 535.125H634.259L639.049 535.095H640.509L714.999 534.595L719.399 534.575L720.379 534.565L863.079 533.615Z" fill="black"/>
<path d="M487.249 349.445C515.598 349.445 538.579 326.464 538.579 298.115C538.579 269.766 515.598 246.785 487.249 246.785C458.9 246.785 435.919 269.766 435.919 298.115C435.919 326.464 458.9 349.445 487.249 349.445Z" fill="#FBBEBE"/>
<path d="M538.59 377.125C538.59 377.125 439.09 389.125 448.59 377.125C452.03 372.785 452.98 359.925 452.79 345.275C452.73 340.825 452.57 336.215 452.34 331.625C451.24 309.625 448.59 288.125 448.59 288.125C448.59 288.125 535.59 247.125 525.59 279.625C521.59 292.755 522.9 311.195 525.94 328.505C526.83 333.555 527.86 338.505 528.94 343.205C531.575 354.669 534.796 365.99 538.59 377.125Z" fill="#FBBEBE"/>
<path d="M506.12 373.055C517.63 370.925 529.82 367.055 540.65 371.515C543.5 372.685 546.12 374.395 549.04 375.375C551.96 376.355 555.16 376.595 558.2 377.285C568.88 379.705 577.54 387.835 583.1 397.285C588.66 406.735 591.54 417.425 594.36 428.005L601.26 453.835C607.26 476.285 613.26 498.925 614.65 522.135C531.116 526.916 447.392 527.394 363.81 523.565C369.25 513.225 374.81 502.255 374.35 490.565C373.89 478.875 367.16 467.345 369.59 455.825C371.14 448.485 376.16 442.435 379.23 435.605C387.98 416.085 381.17 389.815 396.55 374.955C403.47 368.275 413.55 365.745 423.18 366.065C435.46 366.475 448.03 370.305 460.18 372.175C475.74 374.535 490.44 375.935 506.12 373.055Z" fill="#FF6584"/>
<path opacity="0.1" d="M637.019 484.225L636.919 485.655V485.755L636.749 488.055L635.419 506.565L633.809 528.865L633.349 535.145L632.349 548.585V548.755L525.349 549.755L349.759 551.655V552.495H349.619V551.375L350.069 537.015L350.929 508.955L351.669 485.165L351.739 482.795C351.783 481.365 352.118 479.958 352.723 478.661C353.329 477.365 354.192 476.205 355.261 475.253C356.33 474.301 357.582 473.577 358.939 473.126C360.297 472.674 361.733 472.503 363.159 472.625C367.879 473.025 374.009 473.515 381.339 474.035L384.339 474.255C426.669 477.195 504.899 480.995 583.839 476.255C585.499 476.165 587.169 476.065 588.839 475.945C601.079 475.175 613.309 474.185 625.419 472.945C626.95 472.785 628.497 472.962 629.952 473.464C631.407 473.966 632.735 474.782 633.841 475.852C634.947 476.923 635.804 478.223 636.353 479.661C636.903 481.099 637.13 482.64 637.019 484.175V484.225Z" fill="black"/>
<path d="M349.729 552.495V551.655L525.35 549.745L632.35 548.745H632.65V548.575L633.65 535.135L634.079 529.135L635.72 506.525L637.009 488.625V488.185C637.069 487.36 637.032 486.531 636.9 485.715C636.905 485.682 636.905 485.648 636.9 485.615C636.625 483.927 635.938 482.333 634.9 480.975C633.798 479.563 632.356 478.455 630.708 477.755C629.059 477.055 627.26 476.787 625.48 476.975C613.37 478.215 601.14 479.205 588.9 479.975C587.23 480.095 585.56 480.195 583.9 480.285C504.96 484.975 426.73 481.175 384.4 478.285L381.4 478.065C374.07 477.545 367.94 477.065 363.22 476.655C360.623 476.436 358.037 477.186 355.962 478.762C353.886 480.337 352.467 482.625 351.979 485.185C351.879 485.726 351.818 486.275 351.799 486.825L351.12 508.985L350.19 537.055L349.75 551.415V552.535L349.729 552.495Z" fill="#3F3D56"/>
<path opacity="0.1" d="M637.319 491.235L636.089 506.565L634.259 529.415L633.799 535.135L632.799 547.945L632.739 548.585V548.755L632.589 550.235L632.699 548.755H632.409L525.409 549.755L349.759 551.655V551.375L350.249 537.015L351.249 508.955L351.889 490.305C351.92 489.244 352.217 488.208 352.751 487.291C353.286 486.374 354.041 485.605 354.949 485.055C356.081 484.361 357.405 484.046 358.729 484.155C360.829 484.325 363.409 484.525 366.419 484.745C371.309 485.105 377.339 485.525 384.359 485.965C397.359 486.785 413.669 487.665 432.359 488.385C484.359 490.385 554.559 491.055 621.239 485.215C624.239 484.955 627.339 484.665 630.369 484.375C631.568 484.255 632.777 484.485 633.849 485.035C634.153 485.186 634.441 485.367 634.709 485.575C635.579 486.206 636.269 487.054 636.709 488.035C636.811 488.23 636.894 488.434 636.959 488.645C637.259 489.474 637.382 490.356 637.319 491.235Z" fill="black"/>
<path opacity="0.1" d="M298.089 504.925V508.115C298.09 509.275 297.761 510.411 297.141 511.392C296.522 512.373 295.637 513.157 294.589 513.655L254.489 514.425C253.423 513.936 252.519 513.151 251.886 512.164C251.254 511.176 250.918 510.028 250.919 508.855V505.855L298.089 504.925Z" fill="black"/>
<path d="M298.579 515.535L246.329 516.535V507.865L298.579 506.865V515.535Z" fill="#3F3D56"/>
<path opacity="0.1" d="M298.579 515.535L246.329 516.535V507.865L298.579 506.865V515.535Z" fill="black"/>
<path d="M300.579 515.535L248.329 516.535V507.865L300.579 506.865V515.535Z" fill="#3F3D56"/>
<path opacity="0.1" d="M679.209 506.925V510.115C679.208 511.275 679.537 512.411 680.157 513.392C680.776 514.373 681.661 515.157 682.709 515.655L722.809 516.425C723.875 515.936 724.779 515.151 725.411 514.164C726.044 513.176 726.38 512.028 726.379 510.855V507.855L679.209 506.925Z" fill="black"/>
<path opacity="0.1" d="M678.709 517.535L730.959 518.535V509.865L678.709 508.865V517.535Z" fill="black"/>
<path d="M676.709 517.535L728.959 518.535V509.865L676.709 508.865V517.535Z" fill="#3F3D56"/>
<path d="M454.779 313.845C454.859 320.845 451.619 327.445 448.869 333.915C438.857 357.483 434.52 383.074 436.209 408.625C436.939 419.625 438.789 430.625 436.939 441.525C435.089 452.425 428.509 463.295 417.939 466.425C435.469 476.875 459.199 475.775 475.699 463.765C484.489 457.365 491.039 448.435 497.449 439.655C496.688 455.427 492.121 470.781 484.139 484.405C498.568 483.127 512.566 478.834 525.23 471.802C537.893 464.77 548.938 455.157 557.649 443.585C561.959 437.775 565.709 431.395 567.369 424.355C570.459 411.355 566.149 397.845 562.859 384.855C560.11 373.996 558.049 362.974 556.689 351.855C556.259 348.295 555.909 344.635 556.789 341.155C557.789 337.085 560.459 333.645 562.429 329.935C568.029 319.395 568.159 306.635 565.289 295.055C562.419 283.475 556.799 272.795 551.229 262.245C546.769 253.785 541.929 244.935 533.769 239.965C528.669 236.865 522.769 235.575 516.889 234.325L491.519 228.895C485.969 227.705 480.259 226.515 474.649 227.385C465.179 228.865 458.509 235.705 452.649 242.725C448.059 248.185 436.839 258.435 436.049 265.585C435.329 272.175 441.149 283.215 442.139 290.165C443.439 299.165 444.359 296.165 449.439 301.685C452.649 305.105 454.719 309.055 454.779 313.845Z" fill="#3F3D56"/>
<path d="M240 350.826C240.763 349.332 241.562 349.037 243.45 349.447L268.977 368.075H293.815L319.343 349.446C322.025 348.627 323.133 348.852 324.172 350.826V409.471C323.297 417.673 320.033 423.27 314.513 428.099C308.994 432.929 284.156 446.038 284.156 446.038C282.546 446.344 281.628 446.332 280.016 446.038C280.016 446.038 255.179 433.619 248.969 428.099C242.76 422.58 240.779 418.507 240 409.471V350.826Z" fill="#5352ED"/>
<path d="M246.898 404.641C263.592 413.198 272.628 417.983 275.876 426.029V435.689C255.204 424.956 247.54 419.372 246.898 410.851V404.641Z" fill="white"/>
<path d="M317.273 404.641C300.58 413.198 291.544 417.983 288.296 426.029V435.689C308.968 424.956 316.632 419.372 317.273 410.851V404.641Z" fill="white"/>
<path d="M300.025 395.672C295.625 396.611 294.67 399.302 293.816 405.331L305.545 399.122C305.149 396.341 304.225 395.354 300.025 395.672Z" fill="white"/>
<path d="M264.147 395.674C268.548 396.613 269.503 399.303 270.357 405.331L258.628 399.123C259.024 396.343 259.948 395.356 264.147 395.674Z" fill="white"/>
<path d="M245.957 363.482C245.851 362.423 247.253 361.953 247.806 362.862L254.159 373.299C254.726 374.229 254.443 375.442 253.525 376.026L248.96 378.931C248.331 379.331 247.502 378.928 247.428 378.187L245.957 363.482Z" fill="white"/>
<path d="M318.215 363.482C318.321 362.423 316.919 361.953 316.365 362.862L310.013 373.299C309.446 374.229 309.728 375.442 310.647 376.026L315.212 378.931C315.841 379.331 316.67 378.928 316.744 378.187L318.215 363.482Z" fill="white"/>
<path d="M686.5 363.083C666.985 363.083 651.083 378.985 651.083 398.5C651.083 418.015 666.985 433.917 686.5 433.917C706.014 433.917 721.916 418.015 721.916 398.5C721.916 378.985 706.014 363.083 686.5 363.083ZM654.66 398.5C654.66 393.896 655.652 389.504 657.423 385.538L672.616 427.152C661.991 421.981 654.66 411.108 654.66 398.5ZM686.5 430.34C683.383 430.34 680.373 429.879 677.504 429.029L687.066 401.263L696.841 428.073C696.912 428.215 696.983 428.392 697.054 428.498C693.76 429.702 690.218 430.34 686.5 430.34ZM690.891 383.554C692.804 383.448 694.539 383.235 694.539 383.235C696.239 383.023 696.062 380.508 694.327 380.615C694.327 380.615 689.156 381.004 685.827 381.004C682.71 381.004 677.433 380.615 677.433 380.615C675.733 380.544 675.521 383.165 677.256 383.271C677.256 383.271 678.885 383.483 680.585 383.59L685.543 397.19L678.566 418.085L666.985 383.554C668.898 383.483 670.633 383.271 670.633 383.271C672.333 383.058 672.156 380.544 670.421 380.65C670.421 380.65 665.25 381.04 661.921 381.04C661.318 381.04 660.61 381.04 659.866 381.004C665.604 372.363 675.379 366.66 686.5 366.66C694.787 366.66 702.331 369.813 707.998 375.019C707.856 375.019 707.714 374.983 707.573 374.983C704.456 374.983 702.225 377.71 702.225 380.65C702.225 383.271 703.748 385.502 705.341 388.123C706.546 390.248 707.962 392.975 707.962 396.906C707.962 399.633 706.9 402.785 705.554 407.213L702.366 417.838L690.891 383.554ZM714.443 383.235C718.421 390.516 719.4 399.062 717.171 407.053C714.941 415.044 709.68 421.849 702.508 426.019L712.248 397.898C714.054 393.365 714.656 389.717 714.656 386.494C714.656 385.325 714.585 384.227 714.443 383.235Z" fill="white"/>
</g>
<defs>
<clipPath id="clip0_1410_213">
<rect width="1041.28" height="554.141" fill="white"/>
</clipPath>
</defs>
</svg>
